<svg xmlns="http://www.w3.org/2000/svg" width="22" height="22" viewBox="0 0 22 22">
    <path fill="#1474A4" fill-rule="evenodd" d="M22 18.013c0 .72-.18 1.384-.54 1.993a4.05 4.05 0 0 1-1.454 1.455c-.61.36-1.278.539-2.005.539-.727 0-1.395-.18-2.005-.54a4.05 4.05 0 0 1-1.454-1.454 3.854 3.854 0 0 1-.54-1.993c0-.282.031-.563.094-.845l-7.083-3.541a4.212 4.212 0 0 1-1.349 1.008 3.842 3.842 0 0 1-1.677.376c-.72 0-1.384-.18-1.993-.54a4.023 4.023 0 0 1-1.455-1.466A3.917 3.917 0 0 1 0 11c0-.72.18-1.388.54-2.005a4.023 4.023 0 0 1 1.454-1.466c.61-.36 1.274-.54 1.993-.54.594 0 1.153.125 1.677.376.524.25.974.586 1.349 1.008l7.083-3.541a3.882 3.882 0 0 1-.094-.845c0-.72.18-1.384.54-1.993A4.05 4.05 0 0 1 15.996.539C16.606.18 17.274 0 18 0c.727 0 1.396.18 2.005.54a4.05 4.05 0 0 1 1.455 1.454c.36.61.539 1.278.539 2.005 0 .727-.18 1.395-.54 2.005a4.05 4.05 0 0 1-1.454 1.454c-.61.36-1.274.54-1.993.54a3.945 3.945 0 0 1-3.026-1.384l-7.083 3.542a3.882 3.882 0 0 1 0 1.688l7.083 3.542a3.945 3.945 0 0 1 3.026-1.384c.72 0 1.384.18 1.993.54a4.05 4.05 0 0 1 1.455 1.454c.36.61.539 1.282.539 2.017z"/>
</svg>
