<svg xmlns="http://www.w3.org/2000/svg" width="104" height="97" viewBox="0 0 104 97">
    <g fill="none" fill-rule="evenodd">
        <path fill="#f3f3f3" d="M45.014 76.017h-4.442c6.302-4.321 10.443-11.583 10.443-19.806 0-8.612-4.546-16.13-11.373-20.36l4.126-4.127-8.492-8.493-23.332 23.347 2.115 2.116-2.115 2.116 4.246 4.246 2.116-2.116 2.115 2.116L35.246 40.23c5.791 2.986 9.768 9.003 9.768 15.965 0 9.933-8.073 18.006-18.006 18.006-5.176 0-9.843-2.206-13.129-5.702h5.627v-6.002H0V68.5h6.407a24.108 24.108 0 0 0 7.067 7.502H9.003v3.001H3v6.002h48.014v-6.002h-6.001v-2.986zm-3.361-46.409l-4.247-4.246L43.768 19l4.247 4.246-6.362 6.362z"/>
        <g fill="#f3f3f3">
            <path d="M47.132 19.64c-4.328-4.325-4.328-11.34 0-15.693 4.325-4.353 11.34-4.325 15.694 0 4.325 4.326 4.325 11.34 0 15.694-4.326 4.325-11.344 4.325-15.694 0M51.318 55.27L43 46.954l14.002-13.531-.055-.056L76.273 13.68 104 41.407v55.455H92.91V60.816l-5.546 2.773v33.273H76.273v-44.17L64.849 41.268z"/>
        </g>
    </g>
</svg>
